<svg viewBox="0 0 32 32" fill="none" xmlns="http://www.w3.org/2000/svg">
    <circle cx="16" cy="16" r="16" fill="#B6509E"/>
    <path d="M22.83 22.46L17.52 9.54C17.27 8.91 16.66 8.5 15.98 8.5C15.3 8.5 14.69 8.91 14.44 9.54L12.37 14.58L10.79 11.62C10.53 11.14 10.03 10.84 9.49 10.84C8.95 10.84 8.45 11.14 8.19 11.62L5.17 17.24C5.06 17.44 5 17.66 5 17.89C5 18.61 5.59 19.2 6.31 19.2H9.89L11.96 23.09C12.22 23.58 12.72 23.87 13.26 23.87C13.8 23.87 14.3 23.58 14.56 23.09L16.05 20.29L17.99 23.33C18.28 23.78 18.77 24.05 19.3 24.05H25.69C26.41 24.05 27 23.46 27 22.74C27 22.51 26.94 22.29 26.83 22.09L22.83 22.46ZM14.17 18.03L16 14.66L17.83 18.03H14.17Z" fill="white"/>
</svg>
