<svg viewBox="0 0 32 32" fill="none" xmlns="http://www.w3.org/2000/svg">
    <circle cx="16" cy="16" r="16" fill="#F7931A"/>
    <path d="M22.84 13.84C23.14 11.72 21.54 10.58 19.34 9.82L20.04 7.02L18.34 6.6L17.66 9.32C17.22 9.21 16.76 9.11 16.31 9.01L17 6.27L15.3 5.85L14.6 8.65C14.24 8.57 13.88 8.49 13.54 8.4L13.54 8.39L11.2 7.81L10.75 9.62C10.75 9.62 12 9.93 11.97 9.95C12.66 10.12 12.79 10.57 12.76 10.93L11.97 14.1C12.02 14.11 12.08 14.13 12.15 14.16L11.96 14.11L10.88 18.42C10.79 18.65 10.55 19 10.07 18.88C10.09 18.91 8.85 18.6 8.85 18.6L8 20.56L10.2 21.11C10.61 21.21 11 21.32 11.38 21.41L10.67 24.26L12.37 24.68L13.07 21.87C13.53 22 13.97 22.11 14.4 22.22L13.7 25.01L15.4 25.43L16.11 22.59C19.03 23.15 21.22 22.93 22.14 20.29C22.88 18.19 22.1 16.97 20.56 16.17C21.68 15.91 22.54 15.16 22.75 13.69L22.84 13.84ZM18.85 19.1C18.33 21.2 14.63 19.99 13.44 19.69L14.38 15.93C15.57 16.23 19.39 16.9 18.85 19.1ZM19.37 13.81C18.9 15.71 15.82 14.67 14.82 14.42L15.67 11.01C16.67 11.26 19.86 11.82 19.37 13.81Z" fill="white"/>
</svg>
