<svg viewBox="0 0 32 32" fill="none" xmlns="http://www.w3.org/2000/svg">
    <circle cx="16" cy="16" r="16" fill="#FF0420"/>
    <path d="M11.68 20.64C10.32 20.64 9.25 20.22 8.47 19.38C7.7 18.52 7.31 17.36 7.31 15.9C7.31 14.4 7.7 13.22 8.47 12.38C9.25 11.52 10.32 11.1 11.68 11.1C13.04 11.1 14.11 11.52 14.88 12.38C15.66 13.22 16.05 14.4 16.05 15.9C16.05 17.36 15.66 18.52 14.88 19.38C14.11 20.22 13.04 20.64 11.68 20.64ZM11.68 18.66C12.34 18.66 12.84 18.42 13.18 17.94C13.54 17.44 13.72 16.76 13.72 15.9C13.72 15.02 13.54 14.34 13.18 13.86C12.84 13.36 12.34 13.12 11.68 13.12C11.02 13.12 10.51 13.36 10.16 13.86C9.81 14.34 9.64 15.02 9.64 15.9C9.64 16.76 9.81 17.44 10.16 17.94C10.51 18.42 11.02 18.66 11.68 18.66Z" fill="white"/>
    <path d="M17.24 20.46V11.28H21.44C22.48 11.28 23.3 11.56 23.9 12.12C24.5 12.68 24.8 13.44 24.8 14.4C24.8 15.36 24.5 16.12 23.9 16.68C23.3 17.24 22.48 17.52 21.44 17.52H19.52V20.46H17.24ZM19.52 15.66H21.14C21.52 15.66 21.82 15.56 22.02 15.36C22.24 15.14 22.34 14.84 22.34 14.46C22.34 14.08 22.24 13.78 22.02 13.58C21.82 13.36 21.52 13.26 21.14 13.26H19.52V15.66Z" fill="white"/>
</svg>
