<svg viewBox="0 0 32 32" fill="none" xmlns="http://www.w3.org/2000/svg">
    <circle cx="16" cy="16" r="16" fill="#FF007A"/>
    <path d="M12.34 8.52C12.16 8.49 12.15 8.49 12.27 8.49C12.47 8.49 12.81 8.56 13.16 8.67C14.03 8.94 14.75 9.49 15.81 10.67L16.13 11.02L16.56 10.95C18.24 10.67 19.82 10.91 21.03 11.62C21.38 11.83 21.93 12.26 21.97 12.36C21.98 12.4 22.02 12.4 22.12 12.37C22.63 12.22 23.28 12.24 23.78 12.44C23.96 12.51 24.29 12.73 24.33 12.82C24.34 12.85 24.3 12.83 24.23 12.77C24.01 12.59 23.72 12.49 23.44 12.49C22.99 12.49 22.63 12.71 22.21 13.23C21.95 13.55 21.77 13.75 21.56 13.94C21.27 14.19 21.01 14.32 20.74 14.36L20.57 14.38L20.41 14.51C19.44 15.24 18.55 16.47 18.16 17.62C17.97 18.17 17.89 18.5 17.85 19.04C17.79 19.73 17.93 20.31 18.3 20.89C18.49 21.19 18.57 21.37 18.55 21.45C18.51 21.59 18.28 21.58 18.02 21.42C17.62 21.17 17.28 20.68 17.12 20.13C17.01 19.77 16.95 19.1 17.01 18.65C17.14 17.69 17.57 16.64 18.16 15.75C18.3 15.54 18.4 15.36 18.38 15.34C18.33 15.29 17.77 15.5 17.38 15.72C16.65 16.14 16.01 16.79 15.13 17.92C14.49 18.75 14.14 19.15 13.74 19.52C13.04 20.17 12.37 20.5 11.52 20.62C11.08 20.68 10.39 20.62 10.05 20.48L9.92 20.43L10.08 20.36C10.5 20.16 10.92 19.8 11.38 19.26C11.97 18.56 12.38 17.75 12.88 16.27C13.13 15.54 13.27 15.18 13.47 14.77C14.02 13.64 14.71 12.84 15.61 12.3C15.89 12.13 16.4 11.89 16.47 11.92C16.49 11.93 16.46 11.99 16.4 12.06C16.24 12.27 16.16 12.53 16.15 12.88C16.14 13.44 16.32 13.87 16.88 14.55C17.13 14.84 17.27 15.02 17.39 15.23C17.55 15.51 17.63 15.76 17.66 16.1C17.68 16.35 17.66 16.45 17.59 16.45C17.54 16.45 17.53 16.42 17.53 16.3C17.52 15.9 17.38 15.55 17.06 15.16C16.58 14.57 16.36 14.07 16.34 13.49C16.32 13.11 16.38 12.83 16.55 12.54C16.65 12.37 16.67 12.3 16.62 12.24C16.54 12.14 16.1 12.3 15.67 12.55C14.69 13.12 13.97 14.03 13.39 15.38C13.25 15.71 12.95 16.57 12.81 17.03C12.41 18.35 12.03 19.22 11.58 19.84C11.36 20.15 11.02 20.48 10.79 20.62C10.53 20.78 10.12 20.91 9.77 20.94C9.37 20.97 8.88 20.87 8.62 20.71L8.52 20.65L8.72 20.63C9.27 20.56 9.74 20.34 10.21 19.93C10.8 19.41 11.25 18.67 11.86 17.19C12.5 15.64 12.87 14.85 13.42 14.08C14.16 13.06 15.04 12.38 16.02 12.08C16.35 11.98 16.41 11.93 16.24 11.78C16.01 11.58 15.66 11.25 15.46 11.02C14.7 10.14 14.08 9.6 13.42 9.28C13 9.07 12.69 8.97 12.29 8.91C12.12 8.88 11.97 8.85 11.97 8.84C11.96 8.82 12.12 8.82 12.34 8.52Z" fill="white"/>
    <path d="M21.46 10.22C21.36 10.02 21.32 9.81 21.35 9.6C21.38 9.44 21.39 9.43 21.47 9.47C21.58 9.52 21.74 9.75 21.83 9.97C21.94 10.26 21.93 10.59 21.8 10.91C21.73 11.08 21.72 11.08 21.67 10.98C21.6 10.83 21.53 10.38 21.46 10.22Z" fill="white"/>
    <path d="M20.64 10.64C20.5 10.33 20.47 9.87 20.58 9.53C20.64 9.36 20.65 9.36 20.74 9.48C20.89 9.7 20.99 10.06 20.97 10.36C20.96 10.57 20.87 10.91 20.8 10.98C20.76 11.02 20.75 11 20.64 10.64Z" fill="white"/>
</svg>
