<svg viewBox="0 0 32 32" fill="none" xmlns="http://www.w3.org/2000/svg">
    <circle cx="16" cy="16" r="16" fill="#2775CA"/>
    <path d="M20.5 18.5C20.5 16.29 19.09 15.5 16.27 15.16C14.27 14.91 13.86 14.41 13.86 13.5C13.86 12.59 14.52 12 15.77 12C16.89 12 17.55 12.41 17.84 13.33C17.89 13.47 18.02 13.58 18.17 13.58H19.14C19.34 13.58 19.48 13.42 19.48 13.23C19.23 11.91 18.17 10.86 16.75 10.66V9.58C16.75 9.38 16.58 9.23 16.36 9.19H15.31C15.11 9.19 14.94 9.36 14.9 9.58V10.62C13.23 10.86 12.14 12.04 12.14 13.58C12.14 15.66 13.52 16.5 16.34 16.84C18.17 17.14 18.75 17.51 18.75 18.54C18.75 19.57 17.84 20.24 16.59 20.24C15 20.24 14.43 19.54 14.22 18.62C14.17 18.46 14.01 18.34 13.84 18.34H12.84C12.64 18.34 12.5 18.5 12.5 18.71C12.71 20.2 13.64 21.29 15.44 21.58V22.66C15.44 22.86 15.61 23.01 15.83 23.05H16.88C17.08 23.05 17.25 22.88 17.29 22.66V21.58C18.96 21.29 20.05 20.07 20.05 18.37L20.5 18.5Z" fill="white"/>
    <path d="M13.14 24.17C9.22 22.71 7.17 18.38 8.63 14.46C9.43 12.13 11.3 10.29 13.64 9.49C13.81 9.41 13.93 9.25 13.93 9.04V8.17C13.93 7.97 13.81 7.84 13.64 7.84C13.56 7.84 13.52 7.84 13.47 7.88C8.67 9.38 6.08 14.5 7.58 19.3C8.46 22.12 10.67 24.33 13.47 25.21C13.64 25.29 13.81 25.17 13.89 25C13.93 24.92 13.93 24.88 13.93 24.79V23.92C13.93 23.75 13.77 23.59 13.6 23.51L13.14 24.17Z" fill="white"/>
    <path d="M18.53 7.88C18.36 7.8 18.19 7.92 18.11 8.09C18.07 8.17 18.07 8.21 18.07 8.3V9.17C18.07 9.37 18.23 9.53 18.36 9.61C22.28 11.07 24.33 15.4 22.87 19.32C22.07 21.65 20.2 23.49 17.86 24.29C17.69 24.37 17.57 24.53 17.57 24.74V25.61C17.57 25.81 17.69 25.94 17.86 25.94C17.94 25.94 17.98 25.94 18.03 25.9C22.83 24.4 25.42 19.28 23.92 14.48C23.04 11.62 20.79 9.41 17.99 8.53L18.53 7.88Z" fill="white"/>
</svg>
