<svg viewBox="0 0 128 128" fill="none" xmlns="http://www.w3.org/2000/svg">
  <rect width="128" height="128" rx="26" fill="#FB542B"/>
  <path d="M96.32 45.1L92.48 36.9L98.88 30.5C98.88 30.5 92.48 24.1 89.6 24.1H72.32L64 18.5L55.68 24.1H38.4C35.52 24.1 29.12 30.5 29.12 30.5L35.52 36.9L31.68 45.1C31.68 45.1 25.28 58.5 25.28 64.1V96.1C25.28 101.7 31.68 107.3 31.68 107.3L64 115.3L96.32 107.3C96.32 107.3 102.72 101.7 102.72 96.1V64.1C102.72 58.5 96.32 45.1 96.32 45.1Z" fill="white"/>
  <path d="M83.2 50.5L77.6 40.1H68.8L64 37.7L59.2 40.1H50.4L44.8 50.5L40 60.1V73.7L64 92.1L88 73.7V60.1L83.2 50.5Z" fill="#FB542B"/>
  <path d="M64 75.7L52.8 67.7L56 60.1H72L75.2 67.7L64 75.7Z" fill="white"/>
</svg>
