<svg viewBox="0 0 40 40" fill="none" xmlns="http://www.w3.org/2000/svg">
    <rect width="40" height="40" rx="8" fill="#3375BB"/>
    <path d="M20 8C14.48 8 10 12.48 10 18V22.54C10 27.54 13.18 31.74 20 34C26.82 31.74 30 27.54 30 22.54V18C30 12.48 25.52 8 20 8ZM20 10.86C23.88 10.86 27.14 14.12 27.14 18V22.54C27.14 25.82 25.14 29.02 20 30.94C14.86 29.02 12.86 25.82 12.86 22.54V18C12.86 14.12 16.12 10.86 20 10.86ZM20 13.72C17.64 13.72 15.72 15.64 15.72 18V22.54C15.72 24.36 16.8 26.02 20 27.36C23.2 26.02 24.28 24.36 24.28 22.54V18C24.28 15.64 22.36 13.72 20 13.72Z" fill="white"/>
</svg>
