<svg viewBox="0 0 32 32" fill="none" xmlns="http://www.w3.org/2000/svg">
    <circle cx="16" cy="16" r="16" fill="#28A0F0"/>
    <path d="M17.92 13.07L21.23 18.52L23.64 14.32L18.94 6.78C18.68 6.36 18.24 6.1 17.76 6.1H14.24C13.76 6.1 13.32 6.36 13.06 6.78L8.36 14.32L10.77 18.52L14.08 13.07C14.34 12.65 14.78 12.39 15.26 12.39H16.74C17.22 12.39 17.66 12.65 17.92 13.07Z" fill="white"/>
    <path d="M17.76 25.9H14.24C13.76 25.9 13.32 25.64 13.06 25.22L8.36 17.68L10.77 13.48L15.26 20.61C15.52 21.03 15.96 21.29 16.44 21.29H16.74C17.22 21.29 17.66 21.03 17.92 20.61L22.41 13.48L24.82 17.68L20.12 25.22C19.86 25.64 19.42 25.9 18.94 25.9H17.76Z" fill="#96BEDC"/>
</svg>
