<svg viewBox="0 0 32 32" fill="none" xmlns="http://www.w3.org/2000/svg">
    <circle cx="16" cy="16" r="16" fill="#F3BA2F"/>
    <path d="M12.12 14.54L16 10.66L19.89 14.55L22.12 12.32L16 6.2L9.89 12.31L12.12 14.54Z" fill="white"/>
    <path d="M6.2 16L8.43 13.77L10.66 16L8.43 18.23L6.2 16Z" fill="white"/>
    <path d="M12.12 17.46L16 21.34L19.89 17.45L22.13 19.67L22.12 19.68L16 25.8L9.89 19.69L9.88 19.68L12.12 17.46Z" fill="white"/>
    <path d="M21.34 16.01L23.57 13.78L25.8 16.01L23.57 18.24L21.34 16.01Z" fill="white"/>
    <path d="M18.46 16L16 13.54L14.15 15.39L13.93 15.61L13.54 16L16 18.46L18.47 16H18.46Z" fill="white"/>
</svg>
