<svg viewBox="0 0 32 32" fill="none" xmlns="http://www.w3.org/2000/svg">
    <circle cx="16" cy="16" r="16" fill="#40649F"/>
    <path d="M16 6C10.48 6 6 10.48 6 16C6 21.52 10.48 26 16 26C21.52 26 26 21.52 26 16C26 10.48 21.52 6 16 6ZM16 23.5C11.86 23.5 8.5 20.14 8.5 16C8.5 11.86 11.86 8.5 16 8.5C20.14 8.5 23.5 11.86 23.5 16C23.5 20.14 20.14 23.5 16 23.5Z" fill="white"/>
    <path d="M16 11C13.24 11 11 13.24 11 16C11 18.76 13.24 21 16 21C18.76 21 21 18.76 21 16C21 13.24 18.76 11 16 11ZM16 18.5C14.62 18.5 13.5 17.38 13.5 16C13.5 14.62 14.62 13.5 16 13.5C17.38 13.5 18.5 14.62 18.5 16C18.5 17.38 17.38 18.5 16 18.5Z" fill="white"/>
</svg>
