<svg viewBox="0 0 32 32" fill="none" xmlns="http://www.w3.org/2000/svg">
    <circle cx="16" cy="16" r="16" fill="#26A17B"/>
    <path d="M17.78 17.04V17.02C17.68 17.03 17.12 17.06 16.02 17.06C15.14 17.06 14.44 17.03 14.23 17.02V17.04C10.9 16.88 8.43 16.34 8.43 15.69C8.43 15.04 10.9 14.5 14.23 14.34V16.47C14.45 16.48 15.16 16.53 16.04 16.53C17.09 16.53 17.67 16.47 17.78 16.47V14.34C21.09 14.5 23.54 15.04 23.54 15.69C23.54 16.34 21.09 16.88 17.78 17.04ZM17.78 14.13V12.22H21.92V8.84H10.1V12.22H14.23V14.13C10.44 14.32 7.61 15.04 7.61 15.9C7.61 16.76 10.44 17.48 14.23 17.67V24.16H17.78V17.67C21.55 17.48 24.36 16.76 24.36 15.9C24.36 15.04 21.55 14.32 17.78 14.13Z" fill="white"/>
</svg>
