<svg viewBox="0 0 40 40" fill="none" xmlns="http://www.w3.org/2000/svg">
    <rect width="40" height="40" rx="8" fill="#3B99FC"/>
    <path d="M12.66 15.34C16.72 11.28 23.28 11.28 27.34 15.34L27.84 15.84C28.04 16.04 28.04 16.38 27.84 16.58L26.38 18.04C26.28 18.14 26.12 18.14 26.02 18.04L25.34 17.36C22.4 14.42 17.6 14.42 14.66 17.36L13.92 18.1C13.82 18.2 13.66 18.2 13.56 18.1L12.1 16.64C11.9 16.44 11.9 16.1 12.1 15.9L12.66 15.34ZM30.78 18.78L32.06 20.06C32.26 20.26 32.26 20.6 32.06 20.8L25.56 27.3C25.36 27.5 25.02 27.5 24.82 27.3L20.28 22.76C20.24 22.72 20.16 22.72 20.12 22.76L15.58 27.3C15.38 27.5 15.04 27.5 14.84 27.3L8.34 20.8C8.14 20.6 8.14 20.26 8.34 20.06L9.62 18.78C9.82 18.58 10.16 18.58 10.36 18.78L14.9 23.32C14.94 23.36 15.02 23.36 15.06 23.32L19.6 18.78C19.8 18.58 20.14 18.58 20.34 18.78L24.88 23.32C24.92 23.36 25 23.36 25.04 23.32L29.58 18.78C29.84 18.58 30.18 18.58 30.78 18.78Z" fill="white"/>
</svg>
