<svg viewBox="0 0 32 32" fill="none" xmlns="http://www.w3.org/2000/svg">
    <circle cx="16" cy="16" r="16" fill="#8247E5"/>
    <path d="M20.58 12.76C20.21 12.54 19.72 12.54 19.29 12.76L16.51 14.41L14.61 15.48L11.89 17.13C11.52 17.35 11.03 17.35 10.6 17.13L8.45 15.81C8.08 15.59 7.83 15.15 7.83 14.65V12.1C7.83 11.66 8.02 11.22 8.45 10.94L10.6 9.68C10.97 9.46 11.46 9.46 11.89 9.68L14.04 10.94C14.41 11.16 14.66 11.6 14.66 12.1V13.75L16.56 12.62V10.91C16.56 10.47 16.37 10.03 15.94 9.75L11.95 7.38C11.58 7.16 11.09 7.16 10.66 7.38L6.55 9.81C6.12 10.03 5.93 10.47 5.93 10.97V15.7C5.93 16.14 6.12 16.58 6.55 16.86L10.66 19.23C11.03 19.45 11.52 19.45 11.95 19.23L14.67 17.64L16.57 16.51L19.29 14.92C19.66 14.7 20.15 14.7 20.58 14.92L22.73 16.18C23.1 16.4 23.35 16.84 23.35 17.34V19.89C23.35 20.33 23.16 20.77 22.73 21.05L20.64 22.31C20.27 22.53 19.78 22.53 19.35 22.31L17.2 21.05C16.83 20.83 16.58 20.39 16.58 19.89V18.3L14.68 19.43V21.08C14.68 21.52 14.87 21.96 15.3 22.24L19.41 24.61C19.78 24.83 20.27 24.83 20.7 24.61L24.81 22.24C25.18 22.02 25.43 21.58 25.43 21.08V16.29C25.43 15.85 25.24 15.41 24.81 15.13L20.58 12.76Z" fill="white"/>
</svg>
